<svg width="18" height="26" viewBox="0 0 18 26" fill="none" xmlns="http://www.w3.org/2000/svg">
<path d="M11.7731 21.4351C13.5206 21.5431 14.3275 22.4203 14.0768 23.0568C13.8228 23.6944 12.042 25.2969 9.04814 25.722C6.05655 26.1505 3.09357 25.9559 1.964 25.9559C0.833283 25.9559 -0.500001 25.7985 0.188958 25.2182C1.79119 23.9362 3.61086 22.9466 5.56558 22.2909C8.1898 21.4363 10.0266 21.3272 11.7731 21.4363V21.4351ZM17.992 13.8082C17.873 14.5493 17.089 16.442 14.8265 17.8815C12.9878 19.044 10.9442 19.8587 8.80094 20.2836C7.1804 20.6209 5.64798 21.0786 6.15497 20.1441C6.66311 19.2107 8.37978 16.8907 10.8609 15.2612C13.3387 13.6306 14.6491 13.4405 15.7523 13.2122C16.8544 12.9839 18.1122 13.0649 17.992 13.8082ZM17.231 6.12625C18.1396 6.12625 18.0801 6.95282 17.8352 7.66018C17.5926 8.36866 16.5511 10.4761 14.7521 11.757C13.5527 12.6094 12.0329 13.3517 10.1949 13.9781C10.6046 11.6839 11.4835 9.88234 12.8317 8.56884C14.8516 6.59745 16.32 6.12625 17.231 6.12625ZM13.1453 0.00630204C13.4394 -0.022937 13.7335 0.0501606 13.9784 0.213224C14.2108 0.375164 14.3584 0.606827 14.3904 0.86323L14.4282 1.22872C14.528 2.41027 14.3422 3.59828 13.8857 4.69579C13.1876 6.37703 12.1393 7.71191 10.7454 8.69254C10.5061 7.96479 10.3363 7.21671 10.2384 6.458C10.1457 5.56621 10.1457 4.75989 10.7454 2.72441C11.012 1.818 11.5911 1.00043 12.4781 0.269453C12.6683 0.117504 12.9009 0.0257568 13.1453 0.00630204Z" fill="white" fill-opacity="0.3"/>
</svg>
