<svg width="18" height="26" viewBox="0 0 18 26" fill="none" xmlns="http://www.w3.org/2000/svg">
<path d="M6.22693 21.4351C4.47935 21.5431 3.67252 22.4203 3.92315 23.0568C4.17722 23.6944 5.95798 25.2969 8.95186 25.722C11.9435 26.1505 14.9064 25.9559 16.036 25.9559C17.1667 25.9559 18.5 25.7985 17.811 25.2182C16.2088 23.9362 14.3891 22.9466 12.4344 22.2909C9.8102 21.4363 7.97336 21.3272 6.22693 21.4363V21.4351ZM0.00799179 13.8082C0.127014 14.5493 0.910961 16.442 3.17354 17.8815C5.01224 19.044 7.05582 19.8587 9.19906 20.2836C10.8196 20.6209 12.352 21.0786 11.845 20.1441C11.3369 19.2107 9.62022 16.8907 7.13905 15.2612C4.66132 13.6306 3.35093 13.4405 2.24768 13.2122C1.14557 12.9839 -0.112175 13.0649 0.00799179 13.8082ZM0.769049 6.12625C-0.139644 6.12625 -0.0801325 6.95282 0.16478 7.66018C0.407403 8.36866 1.44885 10.4761 3.24793 11.757C4.44731 12.6094 5.96714 13.3517 7.80512 13.9781C7.39541 11.6839 6.51647 9.88234 5.16831 8.56884C3.14836 6.59745 1.68003 6.12625 0.769049 6.12625ZM4.85473 0.00630204C4.56061 -0.022937 4.26649 0.0501606 4.02157 0.213224C3.78925 0.375164 3.64162 0.606827 3.60957 0.86323L3.57181 1.22872C3.47196 2.41027 3.65784 3.59828 4.11427 4.69579C4.81239 6.37703 5.8607 7.71191 7.25464 8.69254C7.49392 7.96479 7.66365 7.21671 7.76163 6.458C7.85434 5.56621 7.85433 4.75989 7.25464 2.72441C6.98799 1.818 6.4089 1.00043 5.52195 0.269453C5.33171 0.117504 5.09909 0.0257568 4.85473 0.00630204Z" fill="white" fill-opacity="0.3"/>
</svg>
