<svg width="57" height="57" viewBox="0 0 57 57" fill="none" xmlns="http://www.w3.org/2000/svg">
<path d="M28.3848 29.473C28.3847 28.7417 28.5318 28.0175 28.8175 27.3419C29.1033 26.6662 29.5222 26.0523 30.0503 25.5352C30.5784 25.018 31.2053 24.6078 31.8953 24.3279C32.5853 24.0481 33.3249 23.904 34.0718 23.904C34.8186 23.904 35.5582 24.0481 36.2482 24.3279C36.9382 24.6078 37.5651 25.018 38.0932 25.5352C38.6213 26.0523 39.0402 26.6662 39.326 27.3419C39.6118 28.0175 39.7588 28.7417 39.7588 29.473C39.7586 30.9498 39.1594 32.3661 38.0929 33.4103C37.0264 34.4545 35.58 35.0411 34.0718 35.0411C32.5635 35.0411 31.1171 34.4545 30.0506 33.4103C28.9841 32.3661 28.3849 30.9498 28.3848 29.473ZM17.0107 40.6101C17.0107 39.1333 17.6099 37.7169 18.6764 36.6726C19.7429 35.6283 21.1895 35.0416 22.6977 35.0416H28.3848V40.6101C28.3848 41.3414 28.2378 42.0656 27.952 42.7413C27.6662 43.4169 27.2473 44.0308 26.7192 44.548C26.1911 45.0651 25.5642 45.4753 24.8742 45.7552C24.1842 46.0351 23.4446 46.1791 22.6977 46.1791C21.9509 46.1791 21.2113 46.0351 20.5213 45.7552C19.8313 45.4753 19.2044 45.0651 18.6763 44.548C18.1482 44.0308 17.7293 43.4169 17.4435 42.7413C17.1577 42.0656 17.0107 41.3414 17.0107 40.6101ZM28.3848 12.7673V23.9045H34.0718C34.8186 23.9045 35.5582 23.7605 36.2482 23.4807C36.9382 23.2009 37.5652 22.7907 38.0934 22.2736C38.6215 21.7565 39.0404 21.1426 39.3263 20.467C39.6121 19.7914 39.7592 19.0672 39.7592 18.3359C39.7592 17.6046 39.6121 16.8804 39.3263 16.2048C39.0404 15.5292 38.6215 14.9153 38.0934 14.3982C37.5652 13.8811 36.9382 13.4709 36.2482 13.1911C35.5582 12.9113 34.8186 12.7673 34.0718 12.7673H28.3848ZM17.0107 18.3359C17.0107 19.8128 17.6099 21.2292 18.6764 22.2735C19.7429 23.3178 21.1895 23.9045 22.6977 23.9045H28.3848V12.7673H22.6977C21.1895 12.7673 19.7429 13.354 18.6764 14.3983C17.6099 15.4426 17.0107 16.859 17.0107 18.3359ZM17.0107 29.473C17.0107 30.9499 17.6099 32.3663 18.6764 33.4106C19.7429 34.4549 21.1895 35.0416 22.6977 35.0416H28.3848V23.9045H22.6977C21.1895 23.9045 19.7429 24.4911 18.6764 25.5354C17.6099 26.5798 17.0107 27.9961 17.0107 29.473Z" fill="white" fill-opacity="0.9"/>
</svg>
