<svg width="57" height="57" viewBox="0 0 57 57" fill="none" xmlns="http://www.w3.org/2000/svg">
<path d="M10.3528 36.4009L20.6175 17.3469C21.5578 15.5981 24.1558 15.5573 25.1561 17.2773L36.198 36.257C37.3158 38.176 35.4471 40.4309 33.2378 39.8264L24.1462 37.3364C23.6821 37.2095 23.1925 37.2095 22.7284 37.3364L13.349 39.9008C11.1804 40.4933 9.31892 38.3176 10.3528 36.3985V36.4009Z" fill="white" fill-opacity="0.9"/>
<path d="M40.9089 38.6651L45.1476 39.8261C47.3546 40.4306 49.2257 38.1757 48.1078 36.2566L37.0659 17.2746C36.068 15.5546 33.4677 15.5954 32.5273 17.3465L30.709 20.7193L40.9089 38.6627V38.6651Z" fill="white" fill-opacity="0.9"/>
</svg>
