<svg width="57" height="57" viewBox="0 0 57 57" fill="none" xmlns="http://www.w3.org/2000/svg">
<path d="M40.1794 11.2302H37.4987C36.7178 11.2302 36.1362 11.5459 35.8316 12.1109L31.8604 17.9098L35.3386 22.6676L41.4035 13.9608C42.0736 13.1466 41.841 12.4155 41.7136 12.1386C41.4422 11.5681 40.8718 11.2302 40.1794 11.2302Z" fill="white" fill-opacity="0.9"/>
<path d="M20.772 12.0389C20.1683 11.2302 19.3597 11.2302 19.0938 11.2302H16.474C15.8038 11.2302 15.2555 11.5404 14.9675 12.0776C14.6739 12.626 14.7349 13.2851 15.1447 13.8999L24.854 27.3643L13.6881 42.9391C13.3004 43.5262 13.245 44.1742 13.5385 44.7225C13.8265 45.2598 14.3749 45.5699 15.045 45.5699H17.7257C18.4125 45.5699 19.0218 45.2099 19.3209 44.6505L31.8161 27.4253L20.7776 12.0444L20.772 12.0389Z" fill="white" fill-opacity="0.9"/>
<path d="M35.2556 32.3823L31.8271 37.1068L37.9861 45.3317L38.1468 45.3982C38.3905 45.509 38.6563 45.5699 38.9222 45.5699H41.542C42.1789 45.5699 42.7162 45.2874 43.0152 44.8C43.3309 44.296 43.3365 43.6646 43.0429 43.0775L35.2556 32.3823Z" fill="white" fill-opacity="0.9"/>
</svg>
