<svg width="57" height="57" viewBox="0 0 57 57" fill="none" xmlns="http://www.w3.org/2000/svg">
<path d="M37.4988 31.9816C35.4397 34.722 34.5487 38.1902 34.8212 42.3887C34.7572 43.3803 34.3994 43.6148 33.7525 43.097C30.8711 40.3566 27.6746 38.8985 24.1628 38.7251C27.5513 37.5137 30.0678 36.4903 31.7218 35.6525C33.0322 34.9906 34.9586 33.767 37.4988 31.9816ZM21.0302 13.109C24.3429 17.7057 26.9234 20.4925 28.7693 21.4694C35.224 24.8839 40.3897 23.1205 42.2688 23.7042C45.0507 24.5664 42.5342 27.2311 34.7193 31.7032L31.0441 33.7059L31.0228 33.7157L30.1745 34.1773L30.1626 34.1529L26.4305 36.0433C18.0422 39.6215 14.2414 40.0758 15.0305 37.4013L15.0731 37.2645C15.72 35.3546 20.6061 32.3651 21.7198 24.9792C22.0373 22.8592 21.426 19.0979 19.881 13.6952C19.8407 13.2214 19.9521 12.9601 20.2198 12.9088C20.4141 12.7085 20.6843 12.7744 21.0302 13.109Z" fill="white" fill-opacity="0.9"/>
</svg>
