<svg width="57" height="57" viewBox="0 0 57 57" fill="none" xmlns="http://www.w3.org/2000/svg">
<path d="M46.6252 41.3564L46.4496 41.2979C45.6108 41.0638 44.8694 40.6736 44.1866 40.0883C43.2112 39.2495 42.2748 38.9178 41.3384 39.0934C42.3138 38.4496 43.1917 37.7863 44.0111 37.1035L44.0891 37.045C44.2257 36.9279 44.3622 36.8109 44.4988 36.6548C44.6939 36.3817 44.7524 36.0696 44.6353 35.7769C44.5771 35.63 44.4818 35.5007 44.3587 35.4015C44.2357 35.3024 44.089 35.2368 43.933 35.2112C43.738 35.1722 43.5624 35.2112 43.4063 35.2112L22.259 36.5768L15.7627 36.9865C15.5481 36.9865 14.9823 37.045 14.7482 37.4742C14.5336 37.8449 14.6897 38.274 14.8653 38.6057L15.275 39.386L15.4115 39.6591L15.2945 39.7567C14.9628 40.0103 14.6507 40.2444 14.3386 40.4785L14.1825 40.5956C13.8899 40.7906 13.6167 41.0052 13.3046 41.1223C12.973 41.2588 12.6218 41.4149 12.5048 41.7856C12.3877 42.1367 12.5828 42.4489 12.7584 42.7415L12.8364 42.8585C12.8364 42.8585 12.9535 42.9756 13.0315 42.9756H13.7923C13.7923 42.9756 13.8899 42.9756 13.9289 42.9366L14.4556 42.5854C14.9043 42.2733 15.3725 41.9612 15.8212 41.649C15.9188 41.571 16.0163 41.5125 16.1138 41.4344L16.1919 41.3759C16.1919 41.3759 16.3089 41.2784 16.3675 41.2393C17.3624 40.5565 17.3624 40.5565 18.2403 41.3759C19.0011 42.0977 19.9375 42.6049 21.069 42.9366H22.1615C22.2005 42.9366 22.259 42.9366 22.2981 42.8976L22.3761 42.8585C22.6102 42.7025 22.8443 42.5464 23.0589 42.3903C23.6246 42.0197 24.0928 41.7075 24.5806 41.3564C25.3804 40.7711 25.8486 40.7906 26.6485 41.3564C27.1557 41.7271 27.6824 42.0587 28.1896 42.3903L28.3457 42.4879L28.8724 42.839L28.931 42.8781C28.931 42.8781 29.009 42.9171 29.0675 42.9171H30.3356C30.3356 42.9171 30.4331 42.9171 30.4721 42.8781L30.5307 42.839C30.7453 42.683 30.9794 42.5464 31.194 42.3903C31.6426 42.0977 32.1889 41.7466 32.6961 41.3759C33.5545 40.7516 34.0032 40.7516 34.8421 41.3759C35.3493 41.7466 35.8955 42.1172 36.3442 42.3903C36.5588 42.5269 36.7929 42.683 37.0075 42.839L37.066 42.8781C37.066 42.8781 37.1441 42.9171 37.2026 42.9171H38.4706C38.4706 42.9171 38.5682 42.9171 38.6072 42.8781L38.6657 42.839L39.3485 42.3903L39.4461 42.3318C39.9143 42.0392 40.3825 41.7271 40.8312 41.3954C41.7091 40.7516 42.1383 40.7711 43.0161 41.3954C43.5039 41.7661 44.0501 42.0782 44.5768 42.4099L44.7329 42.5074C44.9085 42.6244 45.1036 42.722 45.2791 42.839L45.3377 42.8781C45.3377 42.8781 45.4157 42.9171 45.4742 42.9171H46.6837C46.8203 42.9171 46.9178 42.8 46.9178 42.683V41.5905C46.9178 41.4734 46.8398 41.3759 46.7423 41.3564H46.6252ZM17.1088 36.4597H17.8501C18.0452 36.4597 18.2208 36.4207 18.3573 36.3427C22.7272 33.7676 27.3703 33.3774 32.54 35.1527C32.6961 35.2112 32.8327 35.2697 33.0278 35.3282C33.2228 35.4063 33.3984 35.4648 33.5935 35.5428C33.9251 35.6404 34.2373 35.6209 34.4714 35.4648C34.7055 35.3087 34.8421 35.0551 34.8811 34.704V34.5284C34.8811 34.5284 34.8421 34.3723 34.8225 34.3138C34.7445 34.0212 34.686 33.7285 34.6275 33.4359C34.4909 32.7726 34.3348 32.0898 34.1007 31.4265C31.4671 23.8767 26.1803 18.1022 18.3573 14.3175C18.0452 14.1615 17.4014 14.1615 17.1478 14.5126C16.8747 14.8638 17.0112 15.41 17.1283 15.6636C17.3429 16.1123 17.5575 16.561 17.7916 17.0097C18.1622 17.751 18.5524 18.5119 18.845 19.2727C21.1275 25.2813 20.5618 30.4316 17.0893 35.0161C16.9137 35.2502 16.9137 35.5233 16.9137 35.7574V35.8745L16.8747 36.1476C16.8747 36.1476 16.8747 36.2842 16.9332 36.3427C16.9917 36.4012 17.0307 36.4207 17.1283 36.4207L17.1088 36.4597Z" fill="white" fill-opacity="0.9"/>
<path d="M27.0197 18.2778C27.0783 18.4924 27.1758 18.8046 27.4294 18.9801C29.79 20.6774 31.7408 22.9014 33.399 25.7496C34.7646 28.1101 35.8376 30.7048 36.657 33.6896C36.9301 34.665 37.5934 34.704 38.1201 34.587C38.8029 34.4114 39.5247 34.4699 40.266 34.7626L40.5392 34.8796C40.7733 34.9772 41.0074 35.0747 41.2415 35.1332C41.3585 35.1722 41.4756 35.1917 41.5731 35.1917C41.7877 35.1917 41.9828 35.1332 42.1389 34.9967C42.373 34.8016 42.49 34.4894 42.451 34.0798L42.412 33.9432C42.412 33.9432 42.373 33.7871 42.3339 33.7091C40.266 27.6419 36.6375 22.7063 31.5457 19.0777C30.7654 18.5119 29.8875 18.1218 29.0096 17.7121L28.8145 17.634C28.6389 17.556 28.4439 17.4585 28.2683 17.3804C27.9757 17.2439 27.683 17.3414 27.4294 17.4195C27.3709 17.4195 27.3319 17.4585 27.2733 17.4585L26.9807 17.517C26.9807 17.517 26.8442 17.5755 26.8051 17.634C26.7661 17.6926 26.7661 17.7706 26.8051 17.8486L26.9222 18.1218L26.9807 18.2973L27.0197 18.2778Z" fill="white" fill-opacity="0.9"/>
</svg>
