<svg width="57" height="57" viewBox="0 0 57 57" fill="none" xmlns="http://www.w3.org/2000/svg">
<path d="M13.9648 27.7083L17.596 21.4223C16.2907 23.2601 15.069 25.1474 13.8369 27.027C13.675 27.2776 13.6803 27.476 13.9674 27.7083H13.9648ZM39.1245 21.8191L39.2341 21.7643C39.0697 21.4406 38.9 21.1195 38.7381 20.7958L36.4409 16.2666C36.2973 15.9847 36.1485 15.7132 35.6969 15.9038L39.1245 21.8191ZM42.7113 28.4497L42.5285 28.4236L38.9626 34.566L39.0592 34.6234C40.2757 32.7517 41.5 30.88 42.7034 28.9979C42.7844 28.8673 42.7113 28.6324 42.7113 28.4497ZM20.6737 40.3743L20.8094 40.2176L17.314 34.1901L17.2148 34.2449C18.2068 36.1871 19.1962 38.1345 20.2064 40.0662C20.2795 40.2098 20.5145 40.2751 20.6737 40.3743ZM13.4453 26.8573L13.628 26.899L17.4028 21.0986C17.2827 21.0803 17.2357 21.1143 17.2018 21.1586C15.9488 22.8763 14.6931 24.5888 13.4558 26.3195C13.3696 26.4396 13.4453 26.6745 13.4453 26.8573ZM43.0846 29.2589L42.8757 29.2198L38.7355 35.558C38.8295 35.5788 38.8765 35.5632 38.8974 35.5319C40.2705 33.6367 41.6436 31.7415 43.001 29.8358C43.0976 29.6949 43.0585 29.4547 43.0846 29.2615V29.2589ZM16.6092 33.5923L16.4996 33.6367C17.4393 35.7381 18.3739 37.8421 19.3345 39.9383C19.405 40.095 19.6478 40.1707 19.8149 40.2829L19.9532 40.1419L16.6092 33.5949V33.5923ZM39.8946 22.5213L39.9912 22.4586C39.0514 20.3494 38.1168 18.2375 37.1562 16.1361C37.0909 15.9977 36.8273 15.9481 36.655 15.8594L36.561 15.9977L39.892 22.5213H39.8946ZM17.9353 19.7333L17.844 19.6707C17.8178 19.7072 17.797 19.749 17.7656 19.7829C16.2385 21.6572 14.714 23.5342 13.179 25.4032C12.965 25.6669 13.0564 25.8601 13.2704 26.1133L17.9353 19.7333ZM38.6363 36.2732L38.7329 36.3463L40.5315 34.1274L43.236 30.786C43.4318 30.5459 43.5753 30.3109 43.2412 29.982L38.6363 36.2732ZM19.0891 40.0349L15.873 32.8483C16.6431 35.1194 17.502 37.3461 18.353 39.5781C18.4705 39.8913 18.5984 40.1472 19.0891 40.0349ZM21.9032 14.857L30.4708 15.2955C27.8342 14.9797 25.2002 14.6977 22.5663 14.408C22.2348 14.3714 21.9868 14.4001 21.9032 14.857ZM26.174 40.7972C26.2653 40.8468 26.2888 40.8703 26.3175 40.8729C28.9176 41.1496 31.5202 41.4315 34.1228 41.69C34.2821 41.7056 34.4622 41.5124 34.6345 41.4159L34.5692 41.2488L26.174 40.7972ZM30.4081 15.011L30.4264 14.9405C30.3846 14.9222 30.3455 14.8987 30.3037 14.8883C27.8916 14.5045 25.4796 14.1286 23.0727 13.7266C22.7177 13.6666 22.5585 13.7867 22.4305 14.1521L30.4081 15.011ZM37.5869 15.9403L37.4225 16.0969L40.7508 23.5576C40.7873 23.5002 40.8056 23.4846 40.803 23.4767C39.8972 21.1195 38.9992 18.7622 38.0751 16.4128C37.9968 16.2196 37.754 16.0969 37.5843 15.9429V15.9403H37.5869ZM27.7298 40.5831L27.7246 40.651C30.0348 40.7763 32.3451 40.9094 34.6554 41.0165C34.8015 41.0217 34.9608 40.8154 35.1148 40.7058L35.0495 40.5805H27.7272L27.7298 40.5831ZM25.4978 41.0556L25.49 41.1235L29.2909 41.7161L33.4154 42.3635C33.7365 42.413 34.0027 42.3817 34.0262 41.9301L25.4978 41.0556ZM29.8129 15.5566L29.8182 15.5096C29.5415 15.4835 29.2674 15.4469 28.9906 15.4313C27.8447 15.3712 26.7013 15.3138 25.5579 15.2616C24.3649 15.2094 23.1719 15.1572 21.9815 15.1102C21.6892 15.0971 21.4177 15.118 21.4333 15.554H29.8129V15.5566ZM18.306 18.7126L18.2199 18.6213C18.1311 18.7257 18.045 18.8301 17.951 18.9345C17.3349 19.6237 16.7188 20.3154 16.0975 21.002C15.0481 22.1715 13.9987 23.3436 12.9389 24.5079C12.7144 24.7532 12.6883 24.9725 12.9859 25.2518L18.306 18.7126ZM23.6496 12.6041L23.7071 12.8156L31.3427 14.421C31.2983 14.3166 31.2957 14.2931 31.2852 14.2905C28.941 13.6588 26.5995 13.0218 24.25 12.4136C24.0777 12.3692 23.8506 12.5336 23.6496 12.6041ZM41.855 24.547L41.9281 24.5261C41.9281 24.4791 41.936 24.4322 41.9255 24.3904C41.252 21.8791 40.5759 19.3652 39.905 16.8514C39.8163 16.512 39.6022 16.4337 39.2211 16.4598L41.855 24.547ZM38.2865 16.2092L41.2259 23.837C41.2938 23.743 41.2964 23.6673 41.2755 23.602C40.5159 21.2552 39.751 18.9136 38.9992 16.5694C38.8895 16.2301 38.6598 16.1779 38.2839 16.2092H38.2865ZM14.5991 31.4204H14.5443C14.5443 31.4621 14.5339 31.5091 14.5443 31.5509L16.617 39.304C16.7006 39.6172 16.9146 39.6929 17.2801 39.6433L14.5965 31.4204H14.5991ZM38.0855 37.5184L38.1221 37.5706C38.1586 37.5524 38.2004 37.5419 38.2265 37.5106L43.5936 31.5587C43.8129 31.316 43.7607 31.1045 43.5414 30.82L38.0855 37.5184ZM33.5224 42.802L33.4754 42.6193L25.1454 41.3193C27.714 41.959 30.2973 42.5378 32.8933 43.0552C33.076 43.0918 33.311 42.8908 33.5198 42.802H33.5224ZM17.998 39.9749L18.1807 39.8182L15.0064 31.5692C14.9806 31.7053 14.9914 31.8458 15.0377 31.9764C15.86 34.4903 16.6771 37.0068 17.5176 39.5154C17.5803 39.7008 17.8309 39.8235 17.998 39.9749ZM43.9878 31.8563L43.7763 31.778L37.9289 38.218C38.015 38.2441 38.0594 38.2311 38.0855 38.2024C39.999 36.2967 41.9151 34.3911 43.8103 32.4698C43.9408 32.3366 43.9303 32.0625 43.9878 31.8537V31.8563ZM31.729 14.8596L31.7238 14.7891C31.6794 14.7734 31.6377 14.7499 31.5933 14.7395C28.9306 14.173 26.2679 13.6013 23.5974 13.0584C23.4147 13.0218 23.1876 13.215 22.9814 13.3037L23.0336 13.476L31.7264 14.8596H31.729ZM24.3988 41.5177L24.3806 41.5777C24.4432 41.6038 24.5006 41.6377 24.5633 41.656C27.1189 42.3426 29.672 43.037 32.2328 43.6974C32.413 43.7444 32.6505 43.5486 32.8672 43.4677L32.8202 43.3058L24.3988 41.5177ZM12.6857 24.3904L18.6636 17.7859C18.5534 17.7946 18.4507 17.845 18.3765 17.9269C16.5022 19.8064 14.6357 21.6912 12.7509 23.5576C12.4951 23.8109 12.4168 24.0145 12.6857 24.3904ZM12.2837 23.4976L18.058 17.6763C16.5909 18.9919 14.5078 20.8532 12.4455 22.7354C12.3098 22.8607 12.3463 23.1739 12.2837 23.4976ZM37.908 38.9098C37.8558 38.9359 37.8976 38.9255 37.9263 38.8994C39.9572 37.072 41.9829 35.2447 44.0191 33.4226C44.288 33.1824 44.2071 32.9475 44.1261 32.6917L37.908 38.9098ZM16.3743 39.3849L13.9726 30.4571C13.8943 30.5041 13.8839 30.5354 13.8891 30.5641C14.4869 33.3312 15.0899 36.0983 15.6747 38.8654C15.753 39.2335 15.9148 39.4084 16.3743 39.3849ZM24.3623 11.9541L24.391 12.1577L33.1439 14.4941L33.1752 14.3871C30.4551 13.51 27.735 12.6224 25.0045 11.7688C24.827 11.7166 24.579 11.8863 24.3649 11.9541H24.3623ZM32.1754 43.9689L23.1484 41.5542C23.339 41.7108 23.5478 41.8074 23.7645 41.8779C26.2653 42.6819 28.7714 43.4729 31.267 44.2926C31.6481 44.4179 31.917 44.4153 32.1754 43.9689ZM40.1217 16.6973L42.6016 25.9201C42.6695 25.8731 42.6799 25.8418 42.6747 25.8157C42.0586 22.9337 41.4426 20.0544 40.8343 17.1751C40.756 16.8096 40.5341 16.7182 40.1217 16.6973ZM19.5538 15.9821L19.4833 15.8985L18.6088 16.6034L12.5212 21.511C12.221 21.7538 11.9495 21.9992 12.2758 22.503L19.5538 15.9821ZM41.0484 17.0054L43.0898 26.5414C43.1388 26.3923 43.1478 26.233 43.1159 26.0794C42.6747 23.2809 42.2231 20.4851 41.8002 17.6867C41.7376 17.2638 41.5861 17.0367 41.0484 17.008V17.0054ZM44.2802 33.5662L36.7281 40.3247C36.9579 40.2383 37.1702 40.111 37.3546 39.9488C39.563 38.1632 41.7663 36.3724 43.9852 34.6025C44.3245 34.3337 44.489 34.0804 44.2802 33.5636V33.5662ZM21.9763 41.5516L21.9554 41.6612L23.6 42.2825C25.9077 43.1675 28.2206 44.0472 30.523 44.94C30.9146 45.0914 31.1887 45.0418 31.4314 44.6215L21.9763 41.5516ZM13.3305 29.1728L13.2469 29.1884L13.4244 30.3188C13.8578 33.0415 14.2963 35.7642 14.714 38.4895C14.7767 38.902 14.9881 39.0638 15.4528 39.0925L13.3331 29.1728H13.3305ZM12.1244 21.4875L19.8592 15.259L19.7835 15.165C19.1257 15.6453 18.4679 16.1256 17.8074 16.6008C16.0062 17.906 14.205 19.206 12.4011 20.5008C12.067 20.741 11.8477 20.9863 12.1244 21.4902V21.4875ZM35.013 14.7108L35.0339 14.6533C34.9973 14.6325 34.966 14.6064 34.9295 14.5907C31.9405 13.4499 28.9489 12.3196 25.9677 11.1605C25.5422 10.9961 25.3021 11.0927 25.0906 11.4973L35.0104 14.7108H35.013ZM35.0913 14.3792L35.1305 14.3009C35.0939 14.2748 35.06 14.2409 35.0208 14.2252C32.259 12.9931 29.4892 11.7714 26.7326 10.5236C26.328 10.3409 26.1452 10.5445 25.8529 10.8368L35.0939 14.3792H35.0913ZM14.4947 38.7062L12.9519 29.0344C12.8956 29.2293 12.8814 29.434 12.9102 29.6348C13.2025 32.4385 13.5054 35.2421 13.7768 38.0483C13.8186 38.5 14.017 38.6696 14.4973 38.7062H14.4947ZM21.3315 41.7004L21.2793 41.7865C21.3837 41.8414 21.4908 41.9014 21.603 41.951C24.2605 43.1283 26.9232 44.2952 29.5728 45.4856C29.98 45.6683 30.3115 45.7727 30.6248 45.2585L21.3315 41.7004ZM43.6197 27.4368L43.6902 27.4264C43.6902 27.3663 43.6954 27.3063 43.6902 27.2436C43.3717 24.1972 43.0454 21.1482 42.7452 18.0992C42.7008 17.658 42.492 17.4831 42.0117 17.3891L43.6197 27.4394V27.4368ZM36.313 41.1209L36.373 41.1992L37.2867 40.5361C39.6152 38.8472 41.9386 37.1556 44.2697 35.4744C44.5725 35.2578 44.583 35.0254 44.4002 34.613L36.313 41.1209ZM44.4942 35.6598L36.5192 41.4237C36.6341 41.4889 36.6915 41.4681 36.7411 41.4367C39.2315 39.8261 41.7193 38.2102 44.2175 36.6126C44.5621 36.3881 44.6691 36.1375 44.4942 35.6624V35.6598ZM12.0069 20.4616L20.2639 14.4889C20.162 14.4315 20.1072 14.4419 20.0602 14.4706C17.4759 16.1413 14.902 17.8198 12.3124 19.4827C11.9547 19.7098 11.8242 19.963 12.0069 20.4616ZM26.7222 10.2417L36.5323 14.5881C33.6347 13.0192 30.6979 11.5391 27.7716 10.0354C27.3539 9.82137 27.0511 9.83703 26.7222 10.2417ZM20.243 41.6377L20.1803 41.7213L20.5771 41.9301C23.292 43.3084 26.0121 44.6763 28.7139 46.0808C29.1577 46.3131 29.4449 46.2765 29.7816 45.8719L20.243 41.6404V41.6377ZM43.9121 18.3498L44.5203 29.4025C44.5986 25.9306 44.5986 22.4586 44.6039 18.9893C44.6039 18.5638 44.3454 18.4542 43.9121 18.3498ZM42.9801 17.8407L44.134 28.9222C44.1843 28.7737 44.203 28.6163 44.1888 28.4601C44.0139 25.1631 43.8233 21.8687 43.6667 18.569C43.6458 18.1253 43.484 17.9269 42.9801 17.8407ZM11.9756 26.5362H11.9051V27.1731C11.9051 30.4441 11.9104 33.715 11.8843 36.9885C11.879 37.4923 12.1296 37.6516 12.5891 37.7873L11.9756 26.5362ZM36.8769 14.3584L36.9421 14.2722C36.869 14.2252 36.7986 14.1678 36.7255 14.126C34.0106 12.5598 31.2905 10.9935 28.5808 9.41936C28.1945 9.19486 27.9543 9.3802 27.6384 9.66213L36.8769 14.3584ZM11.9417 19.3966L20.7651 13.6953C20.6045 13.6776 20.4427 13.7144 20.3056 13.7997C17.6273 15.3399 14.9542 16.8931 12.2706 18.4255C11.8999 18.6369 11.8425 18.9032 11.9417 19.394V19.3966ZM13.5315 38.2781L12.3646 27.1836C12.3167 27.4276 12.3 27.6767 12.315 27.925C12.4899 31.1254 12.6778 34.3258 12.8371 37.5263C12.858 37.9544 13.0198 38.1789 13.5315 38.2781ZM35.3289 42.6767L35.3837 42.7576L36.052 42.3661C38.7616 40.8154 41.4687 39.2596 44.1862 37.7194C44.583 37.4949 44.6665 37.2104 44.5334 36.7379L35.3315 42.6767H35.3289ZM19.0552 41.4628L19.0187 41.5281C19.0526 41.5542 19.0865 41.5829 19.1231 41.6064C22.0703 43.3032 25.0175 44.9922 27.9543 46.6968C28.3354 46.9135 28.5469 46.7047 28.868 46.4488L19.0526 41.4628H19.0552ZM28.2467 40.3299V40.3247C30.476 40.3247 32.7106 40.3195 34.9399 40.3351C35.2505 40.3351 35.415 40.2307 35.556 39.9723C35.9345 39.2831 36.3339 38.6044 36.7255 37.923C38.558 34.7592 40.3827 31.5901 42.2309 28.4366C42.4111 28.1286 42.3823 27.9197 42.2205 27.6404C40.0329 23.8813 37.8584 20.1118 35.6943 16.3371C35.4646 15.9377 35.2192 15.7863 34.7519 15.7889C30.3664 15.8046 25.9808 15.7967 21.5978 15.7889C21.2532 15.7863 21.0705 15.9011 20.906 16.1961C20.2978 17.2873 19.6582 18.3628 19.0317 19.4409C17.4237 22.2185 15.8104 24.9908 14.2154 27.7736C14.1319 27.9223 14.1475 28.2017 14.2311 28.3583C14.62 29.0762 15.0534 29.7679 15.4632 30.478C17.2853 33.6288 19.11 36.7797 20.9139 39.9383C21.0862 40.2385 21.2637 40.3403 21.6004 40.3351C23.8141 40.3221 26.0304 40.3299 28.2467 40.3299ZM11.6441 28.0189C11.6441 24.9804 11.6493 21.9418 11.6389 18.9006C11.6389 18.5821 11.7433 18.4046 12.02 18.2427C15.7321 16.1152 19.4416 13.9798 23.151 11.8471C24.733 10.9334 26.3149 10.0302 27.8916 9.11132C28.1527 8.95731 28.3641 8.96775 28.6226 9.11393C31.776 10.9465 34.9321 12.7738 38.0907 14.5959C40.2052 15.815 42.3197 17.0367 44.4524 18.2245C44.8518 18.449 44.8701 18.7413 44.8701 19.1016L44.8597 33.4983C44.8597 34.7331 44.8545 35.9652 44.8753 37.1999C44.8806 37.5236 44.7631 37.7038 44.4864 37.8604C42.2314 39.1482 39.9795 40.4413 37.7305 41.7396C34.8668 43.3894 31.9953 45.034 29.1447 46.7047C28.5469 47.0571 28.0796 47.1406 27.427 46.7516C24.5607 45.0392 21.6578 43.3946 18.7602 41.7291C16.818 40.6118 14.8706 39.4998 12.9284 38.3877C12.8214 38.3251 12.73 38.2259 12.6152 38.1919C11.6806 37.9178 11.6128 37.2391 11.6258 36.3985C11.6728 33.6053 11.6441 30.8121 11.6441 28.0189Z" fill="white" fill-opacity="0.9"/>
<path d="M27.5137 22.1896L28.036 22.2013L27.9745 22.7118L27.7855 24.2782L27.7382 24.6908H27.3176C26.8049 24.6908 26.4079 24.6861 26.1314 24.6768V24.6745L24.8838 24.6628H23.8772C23.2132 24.6628 22.8234 24.7794 22.6178 24.9356V24.9379C22.4807 25.0404 22.3272 25.3039 22.3272 25.9356C22.3272 26.1663 22.3744 26.2736 22.4004 26.3179C22.4477 26.3738 22.5186 26.4227 22.6367 26.4577C22.8045 26.5043 23.1093 26.5626 23.5582 26.6302H23.5535L24.0733 26.7001C24.8059 26.8074 25.4178 26.9519 25.8904 27.143C26.3866 27.3435 26.7883 27.6442 27.0624 28.0615C27.3389 28.4764 27.4547 29.0055 27.4547 29.5999C27.4547 29.7095 27.4523 29.8237 27.4429 29.9403L27.4098 30.2969C27.3082 31.1291 27.0766 31.8284 26.6915 32.3692C26.2957 32.9249 25.7237 33.3349 25.0658 33.5347C24.3947 33.7562 23.5535 33.8564 22.5611 33.8564H22.372C21.0984 33.8564 20.0328 33.7934 19.1821 33.6652L18.7261 33.5976L18.7828 33.1478L18.9836 31.551L19.0451 31.0895L19.5129 31.1454C20.6731 31.2853 21.6892 31.3552 22.5611 31.3552H22.7478C23.3314 31.3552 23.7544 31.3016 24.0308 31.2107V31.206C24.3285 31.1104 24.4798 30.9916 24.5577 30.8843C24.678 30.6954 24.7487 30.4799 24.7633 30.2573C24.7846 30.0871 24.7893 29.9915 24.7893 29.9543C24.7893 29.6839 24.7279 29.5603 24.6783 29.5067C24.6121 29.4321 24.4821 29.3482 24.2388 29.2969L24.2198 29.2922C23.7937 29.1946 23.3621 29.1215 22.9273 29.0731C22.3218 29.0222 21.7259 28.892 21.1551 28.6862C20.6971 28.5164 20.3034 28.2111 20.028 27.812L20.0186 27.8004C19.7658 27.3878 19.6594 26.8773 19.6594 26.3039C19.6594 26.0731 19.676 25.8237 19.7067 25.5533V25.5509C19.839 24.4064 20.2431 23.4996 20.9897 22.9402C21.7152 22.3924 22.769 22.1593 24.0615 22.1593H25.0776C25.8101 22.1593 26.6229 22.1686 27.5114 22.1873L27.5137 22.1896ZM33.9858 22.1616C35.309 22.171 36.3818 22.4553 37.1048 23.108L37.3576 23.3691C37.9106 24.0148 38.1516 24.9099 38.1516 25.9799C38.1516 26.2969 38.128 26.6745 38.0807 27.1127L37.8609 28.9542V28.9636C37.6412 30.565 37.1332 31.8097 36.2707 32.6163V32.6186C35.4012 33.4205 34.1654 33.7911 32.6389 33.8004H27.6413L29.0851 22.1616H33.9858ZM30.6021 31.2993H32.8539C33.6573 31.2993 34.1677 31.0988 34.482 30.7841C34.8104 30.4531 35.0703 29.861 35.1909 28.9263L35.4484 26.9169C35.4768 26.6707 35.4949 26.4234 35.5028 26.1757C35.5028 25.5463 35.3492 25.1966 35.146 25.0055L35.1412 24.9985C34.9451 24.812 34.5505 24.6628 33.8369 24.6628H31.4385L30.6021 31.2993Z" fill="white" fill-opacity="0.9"/>
</svg>
