<svg width="57" height="57" viewBox="0 0 57 57" fill="none" xmlns="http://www.w3.org/2000/svg">
<path d="M18.5155 13.4794C19.7588 12.2361 21.6825 13.4838 22.8163 14.2762L23.1562 14.6327L23.454 14.913C24.0229 14.8934 24.5168 14.8041 25.0673 14.6718C26.2171 14.4083 27.3354 14.3805 28.5116 14.3856H29.1083C30.3268 14.3979 31.4292 14.4801 32.6025 14.8241C33.0761 14.9273 33.3483 14.9053 33.8075 14.7538C34.1513 14.5196 34.1518 14.5194 34.4745 14.2264C35.4242 13.4627 36.381 12.9132 37.6308 13.0214C38.1134 13.0921 38.231 13.1235 38.5868 13.4794C38.5271 13.8975 38.5272 13.8979 38.4276 14.2762L38.1239 14.2538C36.6675 14.1923 35.8713 14.6432 34.7636 15.5507L35.2196 15.8026C38.7717 17.8184 41.291 20.85 42.4794 24.785L42.5692 25.1073L42.9482 25.0907C44.2395 25.0573 45.0318 25.1091 46.0439 25.9637C46.7207 26.7761 46.7908 27.5396 46.7704 28.5692C46.6371 29.7322 46.2174 30.8075 45.3261 31.5887C44.7577 32.016 44.3989 32.1387 43.6835 32.1366L43.2558 32.1376C42.8876 32.1164 42.8876 32.1161 42.5692 31.9569L42.5146 32.2684C41.7379 35.9791 39.2876 39.7 36.1239 41.8036C34.0936 43.1079 34.0933 43.1073 33.33 43.1073V46.2938H30.1444V43.2665L29.6659 43.4257C29.3245 43.4408 28.9824 43.447 28.6405 43.4462L28.0937 43.4471C27.5955 43.426 27.595 43.4257 26.9579 43.2665V46.2938H23.7724V43.1073L22.9765 42.9481C19.2573 41.2971 16.6515 37.8612 15.1308 34.1835C14.8566 33.4596 14.6747 32.7169 14.5341 31.9569L14.2148 32.1161C13.4257 32.2027 12.8021 32.2061 12.0849 31.8475C11.0825 30.9646 10.5019 29.9412 10.33 28.6063C10.294 27.586 10.3846 26.7248 11.0292 25.9042C11.8926 25.2027 12.5301 25.0858 13.6181 25.0975L14.1376 25.1024L14.5341 25.1073L14.6982 24.6288C15.4761 22.4231 16.4749 20.5005 18.038 18.7362L18.3173 18.411C19.3988 17.2387 20.89 16.2165 22.3388 15.5507C21.3872 14.8037 20.6988 14.297 19.4716 14.2762L18.9941 14.2655L18.6747 14.2762C18.5752 13.8979 18.5753 13.8975 18.5155 13.4794ZM33.8085 20.4882C32.5887 20.4053 32.0692 20.75 31.4189 21.7626C31.3464 22.384 31.3814 22.7651 31.578 23.3554C32.0881 23.9476 32.505 24.289 33.2909 24.3807C33.9631 24.2903 34.3261 24.1853 34.7646 23.6737C35.2475 23.0297 35.3421 22.5629 35.2421 21.7626C34.8697 21.1557 34.46 20.776 33.8085 20.4882ZM23.0956 20.5175C22.6921 20.7049 22.4636 20.9432 22.1796 21.2841C21.8441 21.8591 21.7975 22.3759 21.9042 23.036C22.1275 23.6488 22.5699 24.0089 23.1347 24.3114C23.7562 24.3839 24.1381 24.348 24.7284 24.1512C25.327 23.6523 25.6456 23.1079 25.7733 22.3397C25.669 21.6669 25.4844 21.3554 25.0233 20.868C24.429 20.4242 23.8194 20.4573 23.0956 20.5175Z" fill="white" fill-opacity="0.9"/>
<path d="M37.5715 13.0514L37.9462 13.0894C38.2684 13.1609 38.2684 13.1609 38.587 13.4795C38.5273 13.8976 38.5273 13.8976 38.4277 14.2759L38.1241 14.2536C36.3759 14.1799 35.5054 14.9073 34.2247 16.0399C33.7994 16.3532 33.5308 16.4509 33.0118 16.506C32.8823 16.1575 32.8823 16.1575 32.8525 15.7095C33.1711 15.3212 33.1711 15.3212 33.649 14.9131L33.9004 14.6784C34.9299 13.738 36.1285 12.8896 37.5715 13.0513V13.0514Z" fill="white" fill-opacity="0.9"/>
<path d="M22.817 14.2757C23.3708 14.6742 23.9266 15.0992 24.2506 15.7093C24.2007 16.1473 24.2007 16.1473 24.0913 16.5057C23.3547 16.4274 22.9967 16.1442 22.4485 15.6594C21.175 14.5901 20.3575 14.1516 18.6754 14.2757C18.5758 13.8974 18.5758 13.8974 18.5161 13.4792C19.7718 12.2235 21.6663 13.5036 22.817 14.2757Z" fill="white" fill-opacity="0.9"/>
<path d="M34.286 21.4438C34.4967 22.3057 34.4967 22.3057 34.2759 22.7082C33.8223 22.957 33.4999 22.8374 33.0117 22.7181C32.8009 21.8562 32.8009 21.8562 33.0217 21.4537C33.4753 21.2048 33.7978 21.3245 34.286 21.4438ZM24.7285 21.4438C24.9393 22.3057 24.9393 22.3057 24.7185 22.7082C24.265 22.957 23.9426 22.8374 23.4542 22.7181C23.2434 21.8562 23.2434 21.8562 23.4642 21.4537C23.9177 21.2048 24.2401 21.3246 24.7285 21.4438Z" fill="white" fill-opacity="0.9"/>
</svg>
