<svg width="57" height="57" viewBox="0 0 57 57" fill="none" xmlns="http://www.w3.org/2000/svg">
<path d="M31.7119 22.9443C32.3921 22.9034 33.0793 22.9133 33.7705 22.9756C33.3993 24.1276 33.2637 24.8134 33.2637 25.7988V27.3711H33.2627C33.2627 27.4857 33.2651 27.6003 33.2686 27.7148C31.8313 28.6981 30.6574 29.8629 29.7207 31.1357C29.8498 30.929 29.9823 30.7239 30.1182 30.5205L29.7715 31C29.5423 31.3289 29.3245 31.6684 29.1182 32.0176C28.6378 32.7803 28.2356 33.5741 27.9053 34.3838C26.2553 38.4288 26.4162 42.8851 27.749 45.9424C24.0321 45.9063 20.6281 44.6555 17.8379 42.4834C17.8237 42.4692 17.8081 42.4573 17.7939 42.4443C18.4599 35.8753 21.7963 31.404 24.251 29.7676L25.4844 28.9453H24.002C23.3118 28.9453 21.8683 28.9974 20.5605 29.1875C23.5671 25.364 27.5352 23.196 31.7119 22.9443ZM33.3477 28.7588C33.5576 30.4884 34.1601 32.1765 35.1543 33.666C35.468 34.2977 36.0994 35.243 36.7266 35.8701C37.0446 36.5017 37.6717 36.8153 37.9854 37.1289C38.3034 37.447 38.9309 37.7606 39.249 38.0742C39.8761 38.7058 40.5076 39.0194 41.1348 39.333C40.8212 39.9647 40.1897 40.592 39.5625 40.9102C37.9854 42.7964 35.7854 44.0556 33.5811 45.001C32.2012 45.5537 30.5847 45.863 28.9355 45.9316L28.7324 45.9355C27.3625 43.1301 27.1 38.7319 28.7354 34.7227C29.6426 32.4987 31.1342 30.3961 33.3477 28.7588ZM28.542 11C32.6368 11.0001 36.4137 12.5724 39.2451 15.0947C38.3043 15.722 37.672 16.0362 37.3584 16.668C35.9117 18.1107 34.7336 20.0853 34.0645 22.1035C33.2585 22.0195 32.455 22.0008 31.6582 22.0488C26.8475 22.3386 22.3555 25.0045 19.1484 29.5859L18.46 30.5693L19.624 30.2783C20.505 30.0581 21.6835 29.9411 22.6514 29.8857C20.2498 32.0489 17.637 36.2242 16.9502 41.9033C16.9315 41.8865 16.9112 41.8705 16.8926 41.8516C15.6336 40.5926 14.6885 39.3333 13.7432 37.7607C13.116 36.8155 12.8024 35.5567 12.4844 34.2979C12.1708 32.7253 12.1709 31.1476 12.1709 29.8887C12.1709 26.4255 13.4297 22.9622 15.3203 20.4443C14.3751 20.7579 13.1162 21.076 12.1709 21.7031C11.8574 22.0166 11.2259 22.3349 10.9121 22.6484C13.7437 16.0358 20.3561 11.0001 27.9141 11H28.542ZM31.0723 29.3555C31.0146 29.4195 30.9574 29.4843 30.9004 29.5498C30.9574 29.4843 31.0146 29.4194 31.0723 29.3555ZM31.3379 29.0693C31.2905 29.1191 31.2441 29.1701 31.1973 29.2207C31.2441 29.1701 31.2905 29.1191 31.3379 29.0693ZM31.5723 28.8281C31.5451 28.8553 31.5191 28.8837 31.4922 28.9111C31.5325 28.8701 31.5725 28.8286 31.6133 28.7881L31.5723 28.8281ZM41.1357 16.667C43.6536 18.8712 45.2311 21.7029 45.8584 25.166V27.0566C45.8584 27.5748 45.8567 28.0959 45.6797 28.4385C42.8793 25.4085 39.7863 23.491 36.6572 22.6035C37.2783 21.0067 38.1394 19.6254 39.2451 18.2402C39.8768 17.613 40.5085 16.9806 41.1357 16.667ZM36.3555 23.4531C37.5864 23.7975 38.8176 24.3109 40.0303 25.0039C38.458 25.3027 37.0455 25.7515 35.7812 26.3164V26.1123C35.7812 25.2248 36.0617 24.3369 36.3555 23.4531Z" fill="white" fill-opacity="0.9"/>
</svg>
