<svg width="57" height="57" viewBox="0 0 57 57" fill="none" xmlns="http://www.w3.org/2000/svg">
<path d="M24.0535 34.5185H15.8034L14.1237 39.7987C14.1006 39.8955 14.0452 39.9811 13.967 40.0408C13.8888 40.1005 13.7926 40.1304 13.6951 40.1256H9.51734C9.27875 40.1256 9.19505 39.9921 9.26624 39.7251L16.4095 18.8207C16.4817 18.6028 16.5533 18.3545 16.6245 18.0757C16.712 17.5915 16.7555 17.1 16.7544 16.6077C16.7495 16.5729 16.7527 16.5375 16.7636 16.5042C16.7745 16.4709 16.7929 16.4407 16.8173 16.416C16.8417 16.3912 16.8714 16.3727 16.9041 16.3617C16.9367 16.3508 16.9715 16.3478 17.0055 16.3529H22.684C22.8505 16.3529 22.9457 16.4138 22.9698 16.5355L31.0828 39.7751C31.154 40.0176 31.0828 40.1388 30.8692 40.1388H26.2254C26.1458 40.1476 26.0658 40.1266 26.0002 40.0798C25.9347 40.0329 25.888 39.9634 25.8689 39.8841L24.0535 34.5185ZM17.1123 29.9156H22.7547C22.6133 29.4312 22.4228 28.9114 22.2323 28.3048C22.0409 27.7001 21.8384 27.0522 21.6248 26.3611L20.9812 24.2894C20.7676 23.5993 20.5714 22.9333 20.3924 22.2913C20.2135 21.6493 20.0528 21.0618 19.9104 20.5288H19.8743C19.6732 21.5101 19.4227 22.4803 19.1239 23.4354C18.7911 24.525 18.4519 25.6392 18.1066 26.7778C17.7941 27.8299 17.4626 28.876 17.1123 29.9156ZM44.222 32.4158H37.1856C37.2758 33.1054 37.5111 33.7669 37.8754 34.3551C38.2751 34.9615 38.8399 35.4354 39.5003 35.7185C40.4011 36.091 41.369 36.2641 42.3403 36.2265C43.1122 36.2302 43.883 36.1637 44.6434 36.0278C45.3613 35.8972 46.0623 35.6838 46.733 35.3917C46.8528 35.2945 46.9119 35.3548 46.9119 35.5728V39.0271C46.9179 39.1211 46.8994 39.2151 46.8586 39.2995C46.8176 39.365 46.7629 39.4204 46.6984 39.4615C45.9581 39.8178 45.1778 40.0804 44.375 40.2434C43.3394 40.4412 42.2869 40.5325 41.2334 40.5158C39.7771 40.5615 38.3281 40.2888 36.9835 39.7162C35.9038 39.2327 34.9496 38.4986 34.1969 37.5723C33.4952 36.7007 32.973 35.6936 32.6615 34.6113C32.3531 33.5431 32.1966 32.4353 32.1968 31.3218C32.1939 30.1067 32.381 28.8988 32.751 27.7438C33.1072 26.616 33.6704 25.5676 34.4105 24.6546C35.1421 23.7514 36.0562 23.0201 37.0903 22.5107C38.2547 21.9768 39.5232 21.7214 40.799 21.7642C41.9827 21.723 43.1609 21.9467 44.2509 22.4194C45.1672 22.8415 45.9698 23.4836 46.5901 24.2909C47.1753 25.0588 47.6228 25.9261 47.912 26.8529C48.1934 27.7457 48.338 28.6775 48.3406 29.6152C48.3406 30.1483 48.3228 30.6327 48.2872 31.0686C48.2516 31.5044 48.2218 31.819 48.1977 32.0124C48.1885 32.0928 48.1506 32.167 48.0913 32.2207C48.0319 32.2745 47.9553 32.3041 47.8759 32.3039C47.7335 32.3039 47.4897 32.3221 47.1443 32.3584C46.7979 32.3947 46.3693 32.4193 45.8585 32.432C45.3462 32.4438 44.7935 32.4173 44.222 32.4173V32.4158ZM37.1971 28.9232H41.8756C42.447 28.9232 42.8699 28.9168 43.1441 28.9041C43.3181 28.9042 43.4917 28.8859 43.6621 28.8496V28.6317C43.6544 28.3476 43.6058 28.0663 43.5178 27.7968C43.3242 27.1763 42.9365 26.6377 42.4141 26.2635C41.8918 25.8893 41.2636 25.7001 40.6259 25.725C40.0253 25.6875 39.4269 25.829 38.9037 26.1323C38.3805 26.4355 37.955 26.8875 37.6791 27.4331C37.4356 27.8978 37.2726 28.4019 37.1971 28.9232Z" fill="white" fill-opacity="0.9"/>
</svg>
