<svg width="57" height="57" viewBox="0 0 57 57" fill="none" xmlns="http://www.w3.org/2000/svg">
<path d="M12.085 39.7442V16.7107C12.085 16.5428 12.158 16.4584 12.304 16.4584C12.6929 16.4584 13.0482 16.4528 13.5838 16.4405C14.1189 16.4285 14.6969 16.4165 15.3178 16.4044C15.9385 16.3925 16.5957 16.3805 17.2894 16.3684C17.983 16.3564 18.6705 16.3505 19.352 16.3505C21.2014 16.3505 22.759 16.5787 24.0249 17.0351C25.1669 17.4165 26.2083 18.0445 27.0734 18.8735C27.8067 19.5919 28.3734 20.4589 28.7344 21.4146C29.0759 22.3448 29.2489 23.327 29.2455 24.3164C29.2455 26.2393 28.7953 27.8254 27.8947 29.0745C26.9883 30.3289 25.7141 31.2788 24.244 31.7961C22.7107 32.361 21.0068 32.5526 19.1329 32.5526C18.5973 32.5526 18.2201 32.5467 18.0012 32.5347C17.7822 32.5228 17.4536 32.5167 17.0155 32.5164V39.7081C17.022 39.7522 17.0179 39.7972 17.0037 39.8395C16.9895 39.8817 16.9654 39.9202 16.9336 39.9517C16.9017 39.9832 16.8628 40.0069 16.82 40.021C16.7771 40.0351 16.7316 40.0391 16.6869 40.0328H12.3405C12.17 40.0328 12.085 39.9369 12.085 39.7442ZM17.0155 20.7841V28.2967C17.3315 28.3209 17.6235 28.3329 17.8917 28.3328H19.0964C19.9829 28.3299 20.8635 28.191 21.7068 27.9213C22.43 27.7091 23.0762 27.2962 23.5685 26.7317C24.0432 26.1793 24.2805 25.4104 24.2805 24.4248C24.2997 23.7275 24.116 23.0395 23.751 22.4423C23.3674 21.8648 22.8129 21.4181 22.1631 21.1627C21.3145 20.837 20.408 20.6837 19.498 20.712C18.9139 20.712 18.3967 20.718 17.9466 20.73C17.4959 20.7425 17.1856 20.7606 17.0155 20.7841ZM43.361 26.9306C42.6748 26.5825 41.9441 26.3278 41.1887 26.1736C40.3564 25.985 39.5054 25.8883 38.6515 25.8852C38.1896 25.8728 37.7284 25.9274 37.2826 26.0473C36.9988 26.1097 36.7465 26.2694 36.5706 26.498C36.4516 26.6808 36.3882 26.8935 36.388 27.1108C36.3947 27.3216 36.4717 27.5244 36.6071 27.6875C36.8203 27.9338 37.0808 28.1359 37.3735 28.2822C37.8941 28.5589 38.4305 28.8056 38.9801 29.021C40.2053 29.426 41.376 29.9768 42.4664 30.6612C43.2094 31.1241 43.8241 31.7621 44.2555 32.5177C44.6182 33.2332 44.7998 34.0247 44.7848 34.8247C44.8066 35.8809 44.5009 36.9185 43.9086 37.7983C43.2745 38.6916 42.3937 39.386 41.3712 39.799C40.2634 40.2795 38.8944 40.5198 37.2642 40.5199C36.2285 40.5303 35.1946 40.4336 34.1792 40.2316C33.3793 40.0867 32.6007 39.8446 31.8611 39.5106C31.7813 39.47 31.7149 39.4077 31.6696 39.3311C31.6244 39.2545 31.6022 39.1667 31.6056 39.0781V35.1851C31.6012 35.147 31.6073 35.1084 31.6234 35.0734C31.6395 35.0385 31.6649 35.0085 31.697 34.9868C31.7283 34.9692 31.7643 34.9616 31.8001 34.9648C31.836 34.968 31.87 34.9819 31.8976 35.0047C32.7711 35.5132 33.7195 35.8842 34.7087 36.1042C35.5806 36.32 36.475 36.435 37.3738 36.4467C38.2254 36.4467 38.8521 36.3385 39.2538 36.1221C39.4352 36.0401 39.5886 35.908 39.6956 35.7417C39.8025 35.5754 39.8583 35.3821 39.8563 35.1851C39.8563 34.8732 39.6737 34.5728 39.3086 34.284C38.9436 33.9956 38.2013 33.6471 37.0817 33.2384C35.9354 32.8445 34.8484 32.2989 33.8507 31.6166C33.137 31.1265 32.5494 30.4784 32.1348 29.724C31.7758 29.0137 31.5944 28.2289 31.6056 27.4352C31.6035 26.4815 31.8687 25.5458 32.372 24.7317C32.9459 23.8353 33.7701 23.1218 34.7452 22.6771C35.8159 22.1487 37.1546 21.8844 38.761 21.8841C39.7019 21.8766 40.6419 21.9429 41.5721 22.0822C42.2457 22.1667 42.9042 22.3426 43.529 22.605C43.5786 22.619 43.6242 22.6442 43.6623 22.6786C43.7003 22.713 43.7298 22.7556 43.7483 22.8032C43.7729 22.8912 43.7851 22.9823 43.7846 23.0736V26.7141C43.7871 26.7564 43.7784 26.7987 43.7592 26.8367C43.7401 26.8747 43.7111 26.9071 43.6753 26.9306C43.6264 26.9545 43.5726 26.967 43.5181 26.967C43.4636 26.967 43.4098 26.9545 43.361 26.9306Z" fill="white" fill-opacity="0.9"/>
</svg>
