<svg width="57" height="57" viewBox="0 0 57 57" fill="none" xmlns="http://www.w3.org/2000/svg">
<path d="M28.0889 35.1126H20.3557L18.7714 40.1179C18.7545 40.2081 18.705 40.2887 18.6326 40.3437C18.5602 40.3987 18.4702 40.4241 18.3803 40.4149H14.4691C14.2414 40.4149 14.177 40.284 14.2414 40.0323L20.9349 20.2882C20.9993 20.0767 21.0587 19.8451 21.1429 19.5883C21.227 19.1401 21.2666 18.6718 21.2666 18.2035C21.2468 18.0978 21.331 17.992 21.435 17.9668H26.8215C26.9898 17.9668 27.069 18.0323 27.0938 18.1381L34.6834 40.0725C34.7428 40.3092 34.6834 40.4149 34.4754 40.4149H30.1286C29.9801 40.4351 29.8365 40.3293 29.7969 40.1783L28.0889 35.1126ZM26.8413 30.7871C26.7175 30.344 26.5492 29.8103 26.366 29.2564C26.1778 28.6823 25.9897 28.063 25.8016 27.4235C25.5936 26.7638 25.4055 26.1243 25.1976 25.4647C24.9896 24.805 24.8015 24.1856 24.6381 23.5713C24.4698 22.9721 24.3262 22.4182 24.1777 21.9096H24.1381C23.95 22.8261 23.7222 23.7375 23.4301 24.6539C23.1182 25.6761 22.8063 26.7437 22.4746 27.8061C22.1825 28.8938 21.8706 29.8959 21.5587 30.7871H26.8413ZM39.3174 21.6931C38.6341 21.7183 37.9658 21.4413 37.4707 20.9478C36.9905 20.4191 36.7429 19.7142 36.7627 18.989C36.7429 18.269 37.0103 17.5842 37.5103 17.0957C38.0103 16.6073 38.6737 16.3505 39.3619 16.3505C40.1738 16.3505 40.7977 16.6073 41.2531 17.0957C41.7149 17.6124 41.9616 18.2911 41.9413 18.989C41.9611 19.7142 41.7136 20.4191 41.2135 20.9478C40.7333 21.4615 40.0253 21.7384 39.3174 21.6931ZM36.9905 40.1783V23.7828C36.9905 23.5713 37.0746 23.4857 37.2628 23.4857H41.3769C41.565 23.4857 41.6492 23.5915 41.6492 23.7828V40.1783C41.6492 40.4149 41.565 40.5207 41.3769 40.5207H37.3024C37.0944 40.5207 36.9905 40.3948 36.9905 40.1783Z" fill="white" fill-opacity="0.9"/>
</svg>
