<svg width="57" height="57" viewBox="0 0 57 57" fill="none" xmlns="http://www.w3.org/2000/svg">
<path d="M28.1696 29.9839C28.2418 28.7295 28.8572 27.6224 29.7865 26.8384C30.7616 26.0294 31.9916 25.5907 33.2591 25.5997C34.5935 25.5997 35.8196 26.0701 36.7301 26.8384C37.6595 27.6224 38.2733 28.7295 38.344 29.9823C38.4146 31.2728 37.8966 32.4692 36.986 33.3583C35.9831 34.315 34.6459 34.8427 33.2591 34.8291C31.8714 34.8429 30.5331 34.3152 29.5291 33.3583C28.6186 32.4692 28.1005 31.2728 28.1711 29.9839M20.069 32.5194C20.0784 33.0118 20.2354 33.9651 20.4709 34.7115C20.9792 36.3173 21.8327 37.7927 22.9717 39.0346C24.1931 40.3759 25.684 41.4451 27.3469 42.1722C29.1568 42.9691 31.1148 43.3752 33.0927 43.3639C35.0703 43.3678 37.0265 42.9553 38.8338 42.1534C40.4956 41.4194 41.9849 40.3457 43.2059 39.0016C44.343 37.7557 45.1957 36.278 45.7052 34.6707C46.195 33.1135 46.3291 31.4664 46.0976 29.8506C45.8772 28.3026 45.3338 26.818 44.5026 25.493C43.7326 24.2605 42.748 23.1756 41.5952 22.2896H41.5983L29.8274 13.2624L29.796 13.2389C29.0236 12.6462 27.7253 12.6493 26.876 13.242C26.0173 13.841 25.9199 14.8336 26.6829 15.4608L26.6813 15.4623L31.5888 19.4498L16.6278 19.4655H16.6074C15.3703 19.4671 14.1819 20.2778 13.9464 21.3033C13.7047 22.346 14.543 23.2116 15.8303 23.2163V23.2194L23.4128 23.2037L9.88043 33.5794L9.82705 33.6186C8.55074 34.5939 8.13943 36.2184 8.94321 37.2454C9.75955 38.2913 11.4943 38.2929 12.7847 37.2517L20.1694 31.2164C20.1694 31.2164 20.0611 32.0317 20.0705 32.5194H20.069ZM39.0489 35.2493C37.5261 36.7986 35.3973 37.6766 33.0912 37.6798C30.7834 37.6861 28.6531 36.8142 27.1303 35.2682C26.4113 34.5471 25.8565 33.6796 25.5039 32.7248C25.1808 31.8265 25.0531 30.8697 25.1294 29.9182C25.2058 28.9667 25.4844 28.0424 25.9466 27.2069C26.4065 26.3811 27.021 25.6512 27.7567 25.0571C29.2355 23.8529 31.1178 23.2021 33.088 23.199C35.0598 23.1959 36.9421 23.8419 38.4225 25.0414C39.176 25.6545 39.7883 26.3805 40.231 27.1849C40.6892 28.0092 40.9685 28.9207 41.0505 29.86C41.1337 30.8226 41.0056 31.7917 40.6753 32.6997C40.3226 33.656 39.7685 34.5254 39.0504 35.2493" fill="white" fill-opacity="0.9"/>
</svg>
